<?xml version="1.0" encoding="UTF-8" standalone="no"?>
<svg
   xmlns:dc="http://purl.org/dc/elements/1.1/"
   xmlns:cc="http://creativecommons.org/ns#"
   xmlns:rdf="http://www.w3.org/1999/02/22-rdf-syntax-ns#"
   xmlns:svg="http://www.w3.org/2000/svg"
   xmlns="http://www.w3.org/2000/svg"
   xmlns:sodipodi="http://sodipodi.sourceforge.net/DTD/sodipodi-0.dtd"
   xmlns:inkscape="http://www.inkscape.org/namespaces/inkscape"
   style="font-size:12px;font-style:normal;font-weight:normal;fill:#000000;fill-opacity:1;stroke:#000000;stroke-width:1;stroke-linecap:square;stroke-linejoin:miter;stroke-miterlimit:10;stroke-opacity:1;stroke-dasharray:none;stroke-dashoffset:0;font-family:Dialog"
   id="svg2"
   version="1.1"
   inkscape:version="0.48.5 r10040"
   width="311.81104"
   height="222.34009"
   sodipodi:docname="source_cc_nursery.svg"
   inkscape:export-filename="/Users/zhian/Documents/Grunwald/ramorum_analysis/source_cc_nursery.png"
   inkscape:export-xdpi="300.01999"
   inkscape:export-ydpi="300.01999">
  <metadata
     id="metadata95">
    <rdf:RDF>
      <cc:Work
         rdf:about="">
        <dc:format>image/svg+xml</dc:format>
        <dc:type
           rdf:resource="http://purl.org/dc/dcmitype/StillImage" />
        <dc:title></dc:title>
      </cc:Work>
    </rdf:RDF>
  </metadata>
  <sodipodi:namedview
     pagecolor="#ffffff"
     bordercolor="#666666"
     borderopacity="1"
     objecttolerance="10"
     gridtolerance="10"
     guidetolerance="10"
     inkscape:pageopacity="0"
     inkscape:pageshadow="2"
     inkscape:window-width="1200"
     inkscape:window-height="1875"
     id="namedview93"
     showgrid="false"
     units="mm"
     fit-margin-top="2.5"
     fit-margin-right="2.5"
     fit-margin-bottom="2.5"
     fit-margin-left="2.5"
     inkscape:zoom="2.5371828"
     inkscape:cx="138.72837"
     inkscape:cy="157.22525"
     inkscape:window-x="1280"
     inkscape:window-y="0"
     inkscape:window-maximized="1"
     inkscape:current-layer="svg2" />
  <!--Generated by the Batik Graphics2D SVG Generator-->
  <defs
     id="genericDefs" />
  <g
     id="g3136"
     transform="matrix(0.85695369,0,0,0.85695369,-81.447508,-406.43761)">
    <line
       id="line9"
       y1="713.99719"
       x2="299.44379"
       x1="256.69751"
       style="font-size:10px;fill:none;stroke-width:0.86764532;stroke-linecap:butt;stroke-linejoin:bevel;font-family:Abadi MT Condensed Extra Bold"
       y2="713.99719" />
    <text
       id="text11"
       style="font-size:10px;stroke:none;font-family:Abadi MT Condensed Extra Bold"
       y="723.29156"
       xml:space="preserve"
       x="268.26529">0.02</text>
    <path
       inkscape:connector-curvature="0"
       id="path13"
       style="font-size:10px;fill:none;stroke-width:0.86764532;stroke-linecap:butt;stroke-linejoin:miter;font-family:Abadi MT Condensed Extra Bold"
       d="m 370.72207,616.91343 -0.37253,-0.15431" />
    <path
       inkscape:connector-curvature="0"
       id="path15"
       style="font-size:10px;fill:none;stroke-width:0.86764532;stroke-linecap:butt;stroke-linejoin:miter;font-family:Abadi MT Condensed Extra Bold"
       d="m 382.11581,551.34126 -7.68534,16.50006" />
    <g
       transform="matrix(0.43382267,0,0,0.43382267,68.968119,452.88013)"
       style="fill:#0000ff;stroke:#0000ff;stroke-width:2;stroke-linecap:butt"
       id="g17">
      <path
         style="fill:none"
         d="m 628.1635,444.3033 66.5476,-66.5476"
         id="path19"
         inkscape:connector-curvature="0" />
      <path
         style="fill:none"
         d="m 434.7309,471.2298 90.4498,11.0658"
         id="path21"
         inkscape:connector-curvature="0" />
      <path
         d="m 795.2344,318.6882 -87.8849,28.5555"
         style="fill:none;stroke:#000000"
         id="path23"
         inkscape:connector-curvature="0" />
      <path
         d="M 168.7656,271.374 434.7309,471.2298"
         style="fill:none;stroke:#000000"
         id="path25"
         inkscape:connector-curvature="0" />
      <path
         d="M 651.2439,485.5162 628.1635,444.3033"
         style="fill:none;stroke:#000000"
         id="path27"
         inkscape:connector-curvature="0" />
      <path
         d="m 519.4494,503.2459 5.7313,-20.9503"
         style="fill:none;stroke:#000000"
         id="path29"
         inkscape:connector-curvature="0" />
      <path
         style="fill:none"
         d="M 525.1807,482.2956 628.1635,444.3033"
         id="path31"
         inkscape:connector-curvature="0" />
      <path
         style="fill:none"
         d="m 707.3495,347.2437 -12.6384,30.512"
         id="path33"
         inkscape:connector-curvature="0" />
      <path
         style="fill:none"
         d="m 704.118,264.9958 3.2315,82.2479"
         id="path35"
         inkscape:connector-curvature="0" />
      <path
         d="m 434.7309,471.2298 0,0"
         style="fill:none;stroke:#000000"
         id="path37"
         inkscape:connector-curvature="0" />
      <path
         d="m 653.1137,174.7541 51.0043,90.2417"
         style="fill:none;stroke:#000000"
         id="path39"
         inkscape:connector-curvature="0" />
    </g>
    <g
       transform="matrix(0.34679784,0.26059728,-0.26059728,0.34679784,116.81832,548.23263)"
       style="font-weight:bold;fill:#f06c45;stroke:#f06c45;stroke-width:2;stroke-linecap:butt;font-family:Helvetica"
       id="g41">
      <text
         x="-26.302801"
         xml:space="preserve"
         y="11.19627"
         style="font-size:23.05226707px;stroke:none"
         id="text43">HunterCr</text>
    </g>
    <g
       transform="matrix(0.40080876,0.16602394,-0.16602394,0.40080876,373.8052,615.13831)"
       style="font-weight:bold;fill:#99cd91;stroke:#99cd91;stroke-width:2;stroke-linecap:butt;font-family:Helvetica"
       id="g45">
      <text
         x="-1.0429851"
         xml:space="preserve"
         y="12.518043"
         style="font-size:23.05031204px;stroke:none"
         id="text47">NFChetHigh</text>
    </g>
    <g
       transform="matrix(0.21196576,0.37851028,-0.37851028,0.21196576,355.01265,664.02279)"
       style="font-weight:bold;fill:#825d99;stroke:#825d99;stroke-width:2;stroke-linecap:butt;font-family:Helvetica"
       id="g49">
      <text
         x="-2.4438746"
         xml:space="preserve"
         y="13.049238"
         style="font-size:23.05105209px;stroke:none"
         id="text51">ChetcoMain</text>
    </g>
    <g
       transform="matrix(0.18315993,-0.39326025,0.39326025,0.18315993,380.47548,548.18438)"
       style="font-weight:bold;fill:#b15928;stroke:#b15928;stroke-width:2;stroke-linecap:butt;font-family:Helvetica"
       id="g53">
      <text
         x="-3.8850715"
         xml:space="preserve"
         y="15.352886"
         style="font-size:23.0509491px;stroke:none"
         id="text55">PistolRSF</text>
    </g>
    <g
       transform="matrix(0.1144858,-0.41846535,0.41846535,0.1144858,283.12607,701.42056)"
       style="font-weight:bold;fill:#b89b74;stroke:#b89b74;stroke-width:2;stroke-linecap:butt;font-family:Helvetica"
       id="g57">
      <text
         x="7.2102232"
         xml:space="preserve"
         y="13.121489"
         style="font-size:23.0497818px;stroke:none"
         id="text59">Coast</text>
    </g>
    <g
       transform="matrix(0.41260874,-0.13405121,0.13405121,0.41260874,415.15041,587.78215)"
       style="font-weight:bold;fill:#a6cee3;stroke:#a6cee3;stroke-width:2;stroke-linecap:butt;font-family:Helvetica"
       id="g61">
      <text
         x="-2.8253646"
         xml:space="preserve"
         y="12.459338"
         style="font-size:23.05006027px;stroke:none"
         id="text63">JHallCr</text>
    </g>
    <g
       transform="matrix(0.39942053,-0.16932099,0.16932099,0.39942053,211.57844,676.16181)"
       style="font-weight:bold;stroke-width:2;stroke-linecap:butt;font-family:Helvetica"
       id="g65">
      <g
         id="text67"
         style="font-size:23.05063248px;stroke:none">
        <path
           inkscape:connector-curvature="0"
           id="path3120"
           style="font-size:23.05063248px;stroke:none"
           d="m 25.342133,-6.5901525 3.635427,0 6.606797,11.5815922 0,-11.5815922 3.23024,0 0,16.5901525 -3.466599,0 -6.775625,-11.7841856 0,11.7841856 -3.23024,0 0,-16.5901525 m 6.865667,-0.033766 0,0" />
        <path
           inkscape:connector-curvature="0"
           id="path3122"
           style="font-size:23.05063248px;stroke:none"
           d="m 44.948677,-2.2681589 0,7.3946609 c -4e-6,0.6978261 0.08253,1.2230678 0.247615,1.5757268 0.292629,0.62279 0.866643,0.9341833 1.722044,0.934181 1.095497,2.3e-6 1.845843,-0.4427014 2.251038,-1.3281127 C 49.379462,5.8280798 49.48451,5.194038 49.48452,4.4061698 l 0,-6.6743287 3.25275,0 0,12.2681589 -3.117688,0 0,-1.7332995 c -0.03002,0.037519 -0.105058,0.1500708 -0.225104,0.3376557 -0.120064,0.1875878 -0.26263,0.3526638 -0.427697,0.4952285 -0.50274,0.4502081 -0.990465,0.7578497 -1.463175,0.9229253 -0.465222,0.165076 -1.012974,0.247614 -1.643258,0.247615 -1.815842,-1e-6 -3.038904,-0.6528011 -3.669193,-1.9584037 C 41.838491,7.5913914 41.66216,6.5296527 41.662161,5.126502 l 0,-7.3946609 3.286516,0 m 2.251039,-0.3264005 0,0" />
        <path
           inkscape:connector-curvature="0"
           id="path3124"
           style="font-size:23.05063248px;stroke:none"
           d="m 62.461755,-2.5607939 c 0.06002,1.26e-5 0.108792,0.00376 0.146317,0.011255 0.04501,1.26e-5 0.138806,0.00376 0.28138,0.011255 l 0,3.28651597 c -0.202602,-0.0225011 -0.382685,-0.037508 -0.540249,-0.0450208 -0.157581,-0.007494 -0.28514,-0.0112459 -0.382677,-0.0112552 -1.290602,9.31e-6 -2.15725,0.42020273 -2.599949,1.26058153 -0.247619,0.4727256 -0.371426,1.2005606 -0.371421,2.1835072 l 0,5.8639548 -3.23024,0 0,-12.2681589 3.061412,0 0,2.13848638 C 59.321551,-0.94753879 59.753,-1.5065461 60.120675,-1.806696 c 0.60027,-0.5027196 1.380629,-0.7540853 2.34108,-0.7540979" />
        <path
           inkscape:connector-curvature="0"
           id="path3126"
           style="font-size:23.05063248px;stroke:none"
           d="m 67.256467,6.0831933 c 0.06753,0.5702664 0.213844,0.9754529 0.438952,1.2155607 0.397679,0.4276996 1.133017,0.641548 2.206018,0.6415459 0.630283,2.1e-6 1.129263,-0.093791 1.49694,-0.2813798 0.375165,-0.187584 0.562751,-0.4689635 0.56276,-0.8441393 -9e-6,-0.3601626 -0.150078,-0.6340387 -0.450208,-0.821629 C 71.210783,5.8055694 70.09652,5.4829209 68.168137,5.0252053 66.779994,4.6800514 65.800793,4.2486028 65.230532,3.7308583 64.660268,3.2206297 64.375137,2.4852912 64.375138,1.5248407 c -1e-6,-1.13301302 0.442702,-2.10471026 1.328112,-2.9150946 0.892909,-0.8178651 2.145986,-1.2268033 3.759234,-1.2268159 1.530699,1.26e-5 2.776272,0.3076542 3.736724,0.9229257 0.967936,0.6077914 1.523191,1.66202665 1.665768,3.1627088 l -3.207729,0 C 71.612218,1.0558833 71.495914,0.72948309 71.308336,0.48936306 70.955665,0.05417227 70.355389,-0.16342789 69.507505,-0.16343805 c -0.697827,1.016e-5 -1.196807,0.10881024 -1.49694,0.32640056 -0.29264,0.21760999 -0.438957,0.47272741 -0.438953,0.76535303 -4e-6,0.36767826 0.157568,0.63405086 0.472718,0.79911856 0.315141,0.1725878 1.429403,0.4689742 3.342792,0.8891602 1.275579,0.3001455 2.232269,0.7541045 2.870074,1.3618782 0.630279,0.6152892 0.945424,1.3843932 0.945436,2.3073143 -1.2e-5,1.2155632 -0.453971,2.2097708 -1.361878,2.9826257 -0.900425,0.7653535 -2.296067,1.1480295 -4.186931,1.1480295 -1.928394,0 -3.354051,-0.405187 -4.276973,-1.2155606 -0.915424,-0.8178756 -1.373134,-1.857104 -1.373134,-3.1176881 l 3.252751,0 m 2.453632,-8.6777527 0,0" />
        <path
           inkscape:connector-curvature="0"
           id="path3128"
           style="font-size:23.05063248px;stroke:none"
           d="M 82.428464,0.05041059 C 81.685616,0.05042054 81.10785,0.2830276 80.695165,0.74823247 80.289973,1.2134558 80.034856,1.8437459 79.929812,2.6391047 l 4.986049,0 C 84.863328,1.7912218 84.604459,1.1496765 84.139253,0.7144669 83.681534,0.27177242 83.111272,0.05042054 82.428464,0.05041059 m 0,-2.64496999 c 1.020463,1.26e-5 1.939636,0.1913506 2.757522,0.5740147 0.817867,0.3826882 1.493178,0.9867162 2.025934,1.81208588 0.48021,0.72784521 0.791604,1.57198372 0.934181,2.53241812 0.08253,0.5627667 0.116292,1.3731397 0.101297,2.4311214 l -8.396373,0 c 0.04502,1.2305716 0.431445,2.0934688 1.159285,2.5886941 0.442699,0.3076442 0.975444,0.461465 1.598237,0.4614628 0.660298,2.2e-6 1.196794,-0.1875841 1.609493,-0.5627596 0.225095,-0.2025904 0.423937,-0.48397 0.596525,-0.8441393 l 3.27526,0 c -0.08255,0.7278386 -0.461474,1.4669288 -1.136774,2.2172727 -1.050494,1.1930505 -2.521171,1.7895746 -4.412035,1.7895756 -1.560725,-10e-7 -2.937609,-0.5027319 -4.130655,-1.5081958 -1.193052,-1.0054617 -1.789576,-2.6412145 -1.789576,-4.9072635 0,-2.1234714 0.536497,-3.75172082 1.609493,-4.88475321 1.080495,-1.13301059 2.479889,-1.69952129 4.198186,-1.69953389 m 0.225104,0 0,0" />
        <path
           inkscape:connector-curvature="0"
           id="path3130"
           style="font-size:23.05063248px;stroke:none"
           d="m 97.532929,-2.5607939 c 0.06002,1.26e-5 0.108792,0.00376 0.146318,0.011255 0.04501,1.26e-5 0.138805,0.00376 0.281379,0.011255 l 0,3.28651597 c -0.202601,-0.0225011 -0.382684,-0.037508 -0.540249,-0.0450208 -0.15758,-0.007494 -0.285139,-0.0112459 -0.382676,-0.0112552 -1.290602,9.31e-6 -2.157251,0.42020273 -2.599949,1.26058153 -0.24762,0.4727256 -0.371427,1.2005606 -0.371422,2.1835072 l 0,5.8639548 -3.23024,0 0,-12.2681589 3.061412,0 0,2.13848638 c 0.495224,-0.81786631 0.926672,-1.37687358 1.294347,-1.67702348 0.600271,-0.5027196 1.38063,-0.7540853 2.34108,-0.7540979" />
        <path
           inkscape:connector-curvature="0"
           id="path3132"
           style="font-size:23.05063248px;stroke:none"
           d="m 100.32422,12.352335 0.40519,0.02251 c 0.31514,0.015 0.61528,0.0038 0.90041,-0.03377 0.28513,-0.03752 0.52524,-0.123809 0.72034,-0.25887 0.18758,-0.12756 0.36016,-0.393933 0.51773,-0.799118 0.16508,-0.405188 0.23261,-0.652802 0.2026,-0.742843 l -4.502079,-12.8084079 3.567899,0 2.67873,9.0491741 2.53242,-9.0491741 3.41032,0 -4.20944,12.0655655 c -0.81038,2.3260704 -1.45192,3.7667334 -1.92464,4.3219934 -0.47272,0.562755 -1.41815,0.844135 -2.8363,0.84414 -0.28514,-5e-6 -0.51399,-0.0038 -0.68657,-0.01126 -0.17258,-5e-6 -0.43145,-0.01126 -0.77661,-0.03377 l 0,-2.566184 m 4.34451,-14.9468944 0,0" />
      </g>
    </g>
    <g
       transform="matrix(0.21344075,0.37768602,-0.37768602,0.21344075,338.96252,499.35711)"
       style="font-weight:bold;fill:#ed8f47;stroke:#ed8f47;stroke-width:2;stroke-linecap:butt;font-family:Helvetica"
       id="g69">
      <text
         x="-37.61665"
         xml:space="preserve"
         y="13.504902"
         style="font-size:23.05079651px;stroke:none"
         id="text71">Winchuck</text>
    </g>
    <g
       transform="matrix(0.30675601,-0.30675601,0.30675601,0.30675601,354.22743,629.50687)"
       style="font-size:10px;fill:#0000ff;stroke:#0000ff;stroke-width:2;stroke-linecap:butt;font-family:Helvetica"
       id="g73">
      <text
         x="-5.5615001"
         xml:space="preserve"
         y="0.29980001"
         style="font-size:23.05111504px;stroke:none"
         id="text75">67</text>
    </g>
    <g
       transform="matrix(0.43061238,0.05266607,-0.05266607,0.43061238,277.47358,657.34223)"
       style="font-size:10px;fill:#0000ff;stroke:#0000ff;stroke-width:2;stroke-linecap:butt;font-family:Helvetica"
       id="g77">
      <text
         x="-5.5615001"
         xml:space="preserve"
         y="0.29980001"
         style="stroke:none"
         id="text79"><tspan
           id="tspan3134"
           style="font-size:23.05097771px">56</tspan></text>
    </g>
    <g
       transform="matrix(0.40701243,-0.15014603,0.15014603,0.40701243,318.31572,651.63139)"
       style="font-size:10px;fill:#0000ff;stroke:#0000ff;stroke-width:2;stroke-linecap:butt;font-family:Helvetica"
       id="g81">
      <text
         x="-5.5615001"
         xml:space="preserve"
         y="0.29980001"
         style="font-size:23.05084229px;stroke:none"
         id="text83">91</text>
    </g>
    <g
       transform="matrix(0.16602394,-0.40080876,0.40080876,0.16602394,369.77178,612.01459)"
       style="font-size:10px;fill:#0000ff;stroke:#0000ff;stroke-width:2;stroke-linecap:butt;font-family:Helvetica"
       id="g85">
      <text
         x="-5.5615001"
         xml:space="preserve"
         y="0.29980001"
         style="font-size:23.05031204px;stroke:none"
         id="text87">56</text>
    </g>
    <g
       transform="matrix(0.01704923,0.43347561,-0.43347561,0.01704923,377.5156,585.30943)"
       style="font-size:10px;fill:#0000ff;stroke:#0000ff;stroke-width:2;stroke-linecap:butt;font-family:Helvetica"
       id="g89">
      <text
         x="-16.312941"
         xml:space="preserve"
         y="-0.12306988"
         style="font-size:23.05152512px;stroke:none"
         id="text91">92</text>
    </g>
  </g>
</svg>
